<?xml version="1.0" encoding="UTF-8" standalone="no"?>
<!DOCTYPE svg PUBLIC "-//W3C//DTD SVG 1.1//EN"
 "http://www.w3.org/Graphics/SVG/1.1/DTD/svg11.dtd">
<!-- Generated by graphviz version 2.43.0 (0)
 -->
<!-- Title: Taints Pages: 1 -->
<svg width="910pt" height="548pt"
 viewBox="0.00 0.00 909.76 548.00" xmlns="http://www.w3.org/2000/svg" xmlns:xlink="http://www.w3.org/1999/xlink">
<g id="graph0" class="graph" transform="scale(1 1) rotate(0) translate(4 544)">
<title>Taints</title>
<polygon fill="white" stroke="transparent" points="-4,4 -4,-544 905.76,-544 905.76,4 -4,4"/>
<!-- $_POST:tests/psalm/res/Tainted.php:243 -->
<g id="node1" class="node">
<title>$_POST:tests/psalm/res/Tainted.php:243</title>
<ellipse fill="none" stroke="black" cx="256.73" cy="-522" rx="199.56" ry="18"/>
<text text-anchor="middle" x="256.73" y="-518.3" font-family="Times,serif" font-size="14.00">$_POST:tests/psalm/res/Tainted.php:243</text>
</g>
<!-- $_POST[$key]&#45;tests/psalm/res/Tainted.php:243&#45;248 -->
<g id="node2" class="node">
<title>$_POST[$key]&#45;tests/psalm/res/Tainted.php:243&#45;248</title>
<ellipse fill="none" stroke="black" cx="256.73" cy="-450" rx="248.86" ry="18"/>
<text text-anchor="middle" x="256.73" y="-446.3" font-family="Times,serif" font-size="14.00">$_POST[$key]&#45;tests/psalm/res/Tainted.php:243&#45;248</text>
</g>
<!-- $_POST:tests/psalm/res/Tainted.php:243&#45;&gt;$_POST[$key]&#45;tests/psalm/res/Tainted.php:243&#45;248 -->
<g id="edge1" class="edge">
<title>$_POST:tests/psalm/res/Tainted.php:243&#45;&gt;$_POST[$key]&#45;tests/psalm/res/Tainted.php:243&#45;248</title>
<path fill="none" stroke="black" d="M256.73,-503.7C256.73,-495.98 256.73,-486.71 256.73,-478.11"/>
<polygon fill="black" stroke="black" points="260.23,-478.1 256.73,-468.1 253.23,-478.1 260.23,-478.1"/>
</g>
<!-- call to test_sink&#45;tests/psalm/res/Tainted.php:243&#45;254 -->
<g id="node3" class="node">
<title>call to test_sink&#45;tests/psalm/res/Tainted.php:243&#45;254</title>
<ellipse fill="none" stroke="black" cx="256.73" cy="-378" rx="256.95" ry="18"/>
<text text-anchor="middle" x="256.73" y="-374.3" font-family="Times,serif" font-size="14.00">call to test_sink&#45;tests/psalm/res/Tainted.php:243&#45;254</text>
</g>
<!-- $_POST[$key]&#45;tests/psalm/res/Tainted.php:243&#45;248&#45;&gt;call to test_sink&#45;tests/psalm/res/Tainted.php:243&#45;254 -->
<g id="edge2" class="edge">
<title>$_POST[$key]&#45;tests/psalm/res/Tainted.php:243&#45;248&#45;&gt;call to test_sink&#45;tests/psalm/res/Tainted.php:243&#45;254</title>
<path fill="none" stroke="black" d="M256.73,-431.7C256.73,-423.98 256.73,-414.71 256.73,-406.11"/>
<polygon fill="black" stroke="black" points="260.23,-406.1 256.73,-396.1 253.23,-406.1 260.23,-406.1"/>
</g>
<!-- test_sink#1 -->
<g id="node8" class="node">
<title>test_sink#1</title>
<ellipse fill="none" stroke="black" cx="256.73" cy="-306" rx="65.79" ry="18"/>
<text text-anchor="middle" x="256.73" y="-302.3" font-family="Times,serif" font-size="14.00">test_sink#1</text>
</g>
<!-- call to test_sink&#45;tests/psalm/res/Tainted.php:243&#45;254&#45;&gt;test_sink#1 -->
<g id="edge6" class="edge">
<title>call to test_sink&#45;tests/psalm/res/Tainted.php:243&#45;254&#45;&gt;test_sink#1</title>
<path fill="none" stroke="black" d="M256.73,-359.7C256.73,-351.98 256.73,-342.71 256.73,-334.11"/>
<polygon fill="black" stroke="black" points="260.23,-334.1 256.73,-324.1 253.23,-334.1 260.23,-334.1"/>
</g>
<!-- $key&#45;tests/psalm/res/Tainted.php:207&#45;210 -->
<g id="node4" class="node">
<title>$key&#45;tests/psalm/res/Tainted.php:207&#45;210</title>
<ellipse fill="none" stroke="black" cx="695.73" cy="-234" rx="206.06" ry="18"/>
<text text-anchor="middle" x="695.73" y="-230.3" font-family="Times,serif" font-size="14.00">$key&#45;tests/psalm/res/Tainted.php:207&#45;210</text>
</g>
<!-- variable&#45;use -->
<g id="node5" class="node">
<title>variable&#45;use</title>
<ellipse fill="none" stroke="black" cx="475.73" cy="-162" rx="67.69" ry="18"/>
<text text-anchor="middle" x="475.73" y="-158.3" font-family="Times,serif" font-size="14.00">variable&#45;use</text>
</g>
<!-- $key&#45;tests/psalm/res/Tainted.php:207&#45;210&#45;&gt;variable&#45;use -->
<g id="edge3" class="edge">
<title>$key&#45;tests/psalm/res/Tainted.php:207&#45;210&#45;&gt;variable&#45;use</title>
<path fill="none" stroke="black" d="M643.87,-216.5C608.57,-205.27 562.06,-190.47 526.91,-179.28"/>
<polygon fill="black" stroke="black" points="527.9,-175.93 517.31,-176.23 525.78,-182.6 527.9,-175.93"/>
</g>
<!-- test_sink -->
<g id="node7" class="node">
<title>test_sink</title>
<ellipse fill="none" stroke="black" cx="475.73" cy="-90" rx="51.99" ry="18"/>
<text text-anchor="middle" x="475.73" y="-86.3" font-family="Times,serif" font-size="14.00">test_sink</text>
</g>
<!-- variable&#45;use&#45;&gt;test_sink -->
<g id="edge5" class="edge">
<title>variable&#45;use&#45;&gt;test_sink</title>
<path fill="none" stroke="black" d="M475.73,-143.7C475.73,-135.98 475.73,-126.71 475.73,-118.11"/>
<polygon fill="black" stroke="black" points="479.23,-118.1 475.73,-108.1 472.23,-118.1 479.23,-118.1"/>
</g>
<!-- $value&#45;tests/psalm/res/Tainted.php:104&#45;109 -->
<g id="node6" class="node">
<title>$value&#45;tests/psalm/res/Tainted.php:104&#45;109</title>
<ellipse fill="none" stroke="black" cx="256.73" cy="-234" rx="214.46" ry="18"/>
<text text-anchor="middle" x="256.73" y="-230.3" font-family="Times,serif" font-size="14.00">$value&#45;tests/psalm/res/Tainted.php:104&#45;109</text>
</g>
<!-- $value&#45;tests/psalm/res/Tainted.php:104&#45;109&#45;&gt;variable&#45;use -->
<g id="edge4" class="edge">
<title>$value&#45;tests/psalm/res/Tainted.php:104&#45;109&#45;&gt;variable&#45;use</title>
<path fill="none" stroke="black" d="M308.35,-216.5C343.49,-205.27 389.79,-190.47 424.78,-179.28"/>
<polygon fill="black" stroke="black" points="425.87,-182.61 434.33,-176.23 423.74,-175.94 425.87,-182.61"/>
</g>
<!-- filler -->
<g id="node10" class="node">
<title>filler</title>
<ellipse fill="none" stroke="black" cx="475.73" cy="-18" rx="32.49" ry="18"/>
<text text-anchor="middle" x="475.73" y="-14.3" font-family="Times,serif" font-size="14.00">filler</text>
</g>
<!-- test_sink&#45;&gt;filler -->
<g id="edge8" class="edge">
<title>test_sink&#45;&gt;filler</title>
<path fill="none" stroke="black" d="M475.73,-71.7C475.73,-63.98 475.73,-54.71 475.73,-46.11"/>
<polygon fill="black" stroke="black" points="479.23,-46.1 475.73,-36.1 472.23,-46.1 479.23,-46.1"/>
</g>
<!-- test_sink#1&#45;&gt;$value&#45;tests/psalm/res/Tainted.php:104&#45;109 -->
<g id="edge9" class="edge">
<title>test_sink#1&#45;&gt;$value&#45;tests/psalm/res/Tainted.php:104&#45;109</title>
<path fill="none" stroke="black" d="M256.73,-287.7C256.73,-279.98 256.73,-270.71 256.73,-262.11"/>
<polygon fill="black" stroke="black" points="260.23,-262.1 256.73,-252.1 253.23,-262.1 260.23,-262.1"/>
</g>
<!-- filler#1 -->
<g id="node9" class="node">
<title>filler#1</title>
<ellipse fill="none" stroke="black" cx="695.73" cy="-306" rx="46.29" ry="18"/>
<text text-anchor="middle" x="695.73" y="-302.3" font-family="Times,serif" font-size="14.00">filler#1</text>
</g>
<!-- filler#1&#45;&gt;$key&#45;tests/psalm/res/Tainted.php:207&#45;210 -->
<g id="edge7" class="edge">
<title>filler#1&#45;&gt;$key&#45;tests/psalm/res/Tainted.php:207&#45;210</title>
<path fill="none" stroke="black" d="M695.73,-287.7C695.73,-279.98 695.73,-270.71 695.73,-262.11"/>
<polygon fill="black" stroke="black" points="699.23,-262.1 695.73,-252.1 692.23,-262.1 699.23,-262.1"/>
</g>
</g>
</svg>
